<?xml version="1.0" encoding="UTF-8"?>
<svg version="1.1" viewBox="0 0 112 112" xmlns="http://www.w3.org/2000/svg" xmlns:cc="http://creativecommons.org/ns#" xmlns:dc="http://purl.org/dc/elements/1.1/" xmlns:rdf="http://www.w3.org/1999/02/22-rdf-syntax-ns#" xmlns:xlink="http://www.w3.org/1999/xlink">
<metadata>
<rdf:RDF>
<cc:Work rdf:about="">
<dc:format>image/svg+xml</dc:format>
<dc:type rdf:resource="http://purl.org/dc/dcmitype/StillImage"/>
<dc:title/>
</cc:Work>
</rdf:RDF>
</metadata>
<circle cx="56" cy="56" r="55.685" fill="#fdf6e3"/>
<path d="m55.967 6.1c-14.857 0-26.9 11.646-26.9 26 0 10.387 10.245 20.339 13.366 22.833l-5.233 6.4c-5.127 5.913-8.085 12.576-8.133 18.567 0 6.253 2.313 11.982 6.133 16.466-2.17 3.57-5.8 9.534-5.8 9.534l6.833-8.334c4.928 5.132 11.994 8.334 19.8 8.334 14.857 0 26.9-11.647 26.9-26 0-9.83-10.032-19.228-13.8-22.334l5.667-6.9c5.127-5.913 8.085-12.576 8.133-18.566 0-6.254-2.313-11.983-6.133-16.467 2.17-3.57 5.8-9.533 5.8-9.533l-6.833 8.333c-4.928-5.132-11.994-8.333-19.8-8.333zm0 1.066c8.294 0 12.084 7.653 13.8 14.534l-24.267 29.533c-4.871-6.507-5-17.477-5-19.133 0-2.08 1.15-24.934 15.467-24.934zm14.633 18.667c0.495 3.197 0.567 5.736 0.567 6.4-1.021 11.422-8.962 20.563-12.6 26.267-4.402 6.917-11.225 17.953-17.167 27.666-0.495-3.197-0.567-5.735-0.567-6.4 1.021-11.422 8.962-20.563 12.6-26.266 4.402-6.917 11.225-17.954 17.167-27.667zm-4.467 35.367c4.317 6.62 5.367 17.122 5.367 18.7 0 2.079-1.15 24.933-15.467 24.933-8.294 0-12.084-7.652-13.8-14.533z" fill="#657b83" font-weight="400" overflow="visible" style="text-decoration-line:none;text-indent:0;text-transform:none"/>
</svg>
